# xmcd
# 
# Track frame offsets:
#     150
#     29789
#     63417
#     94314
#     127774
#     154169
#     182835
#     231268
#     261255
# 
# Disc length: 3890
# 
# Revision: 1
# Processed by: cddbd v1.5.2PL0 Copyright (c) Steve Scherf et al.
# Submitted via: fre:ac v1.0.17
# 
DISCID=7c0f3009
DTITLE=John Surman - Brewster's Rooster
DYEAR=2009
DGENRE=Jazz
TTITLE0=Slanted Sky
TTITLE1=Hilltop Dancer
TTITLE2=No Finesse
TTITLE3=Kickback
TTITLE4=Chelsea Bridge
TTITLE5=Haywain
TTITLE6=Counter Measures
TTITLE7=Brewster's Rooster
TTITLE8=Going For A Burton
EXTD=YEAR: 2009
EXTT0=
EXTT1=
EXTT2=
EXTT3=
EXTT4=
EXTT5=
EXTT6=
EXTT7=
EXTT8=
PLAYORDER=
